<?xml version="1.0" standalone="no"?>
<!DOCTYPE svg PUBLIC "-//W3C//DTD SVG 1.1//EN" "http://www.w3.org/Graphics/SVG/1.1/DTD/svg11.dtd" >
<svg xmlns="http://www.w3.org/2000/svg">
<metadata>Generated by IcoMoon</metadata>
<defs>
<font id="icomoon" horiz-adv-x="1024">
<font-face units-per-em="1024" ascent="960" descent="-64" />
<missing-glyph horiz-adv-x="1024" />
<glyph unicode="&#x20;" horiz-adv-x="512" d="" />
<glyph unicode="&#xb100;" glyph-name="A" horiz-adv-x="870" d="M394.216 957.115c-33.653-4.327-42.306-11.057-53.363-39.902-79.805-212.973-340.853-948.041-339.891-957.176 2.404-19.23 19.711-24.518 69.709-23.076 33.653 1.442 46.152 3.846 53.363 10.577 5.769 4.808 26.441 58.171 51.921 133.168l42.787 124.515 211.050-0.962 211.050-1.442 44.229-124.034c24.518-68.747 48.075-127.88 52.402-132.207 5.769-6.25 19.23-8.173 57.209-9.615 62.017-1.923 73.555 2.885 72.113 30.768-0.962 10.096-78.843 232.684-173.551 494.212-141.341 390.851-174.032 476.905-183.647 484.116-12.5 9.134-79.805 15.384-115.38 11.057zM515.846 567.226c47.114-134.61 85.093-245.664 85.093-247.587 0-2.404-77.882-3.846-173.551-3.846-137.014 0-173.070 1.442-171.147 6.25 0.962 2.885 39.422 114.419 85.093 247.587 46.152 132.687 84.612 241.337 86.535 241.337 1.442 0 40.864-109.611 87.977-243.741z" />
<glyph unicode="&#xb101;" glyph-name="B" horiz-adv-x="675" d="M29.118 951.75c-9.221-4.853-19.412-14.074-22.809-20.868-4.853-9.221-6.309-116.474-6.309-484.337 0-516.853-1.456-493.073 28.148-505.206 10.677-4.368 60.664-5.824 195.579-4.368 167.917 1.941 184.417 2.912 220.33 12.618 141.71 38.825 218.874 126.665 228.58 260.61 8.736 120.356-58.237 226.154-166.461 262.552l-30.089 10.191 18.442 10.191c27.663 15.53 60.664 46.59 77.164 72.311 25.236 39.31 34.942 77.164 34.942 133.46 0 110.165-39.795 179.079-128.607 222.271-62.605 30.574-89.782 34.457-271.773 36.883-148.019 2.427-161.608 1.941-177.137-6.309zM334.863 843.041c78.62-12.618 118.415-49.501 131.033-122.298 14.559-82.502-19.412-155.784-86.87-187.329-26.207-12.133-30.574-12.618-134.916-14.074l-108.224-1.456v330.495h83.958c45.619 0 97.547-2.427 115.018-5.338zM387.276 399.469c62.605-14.559 103.856-45.619 126.665-94.15 11.162-24.265 12.618-33.001 12.618-82.988 0-50.957-1.456-57.752-13.103-80.076-24.265-46.59-71.34-78.62-130.063-89.782-14.074-2.427-75.708-4.853-136.372-4.853h-111.136v359.128h110.65c80.076 0 118.415-1.941 140.739-7.28z" />
<glyph unicode="&#xb102;" glyph-name="C" horiz-adv-x="725" d="M341.333 950.993c-140.326-29.867-246.044-124.207-301.511-269.274-45.511-119.467-52.622-295.348-18.015-432.356 24.652-97.659 83.437-188.207 155.97-239.881 109.985-78.696 287.763-93.393 431.881-35.556 50.252 19.911 98.607 52.622 106.667 72.059 7.111 16.593 8.533 68.741 2.844 90.074-5.215 19.911-18.963 17.067-73.007-17.067-30.341-18.963-65.422-35.556-94.815-45.511-43.615-15.17-50.252-16.119-110.459-16.119-70.637 0-100.030 7.111-151.23 36.504-106.193 60.207-159.763 208.119-146.963 403.911 11.378 174.933 88.652 297.719 210.489 335.17 26.074 8.059 45.037 10.43 87.704 10.43 79.17 0 130.844-17.541 216.178-73.007 41.719-27.496 50.252-26.548 59.259 6.163 7.111 26.074 1.896 73.481-9.007 88.652-24.652 33.185-98.607 68.741-178.252 85.333-55.467 11.852-132.741 11.852-187.733 0.474z" />
<glyph unicode="&#xb103;" glyph-name="D" horiz-adv-x="786" d="M29.118 951.75c-9.221-4.853-19.412-14.074-22.809-20.868-4.853-9.221-6.309-116.474-6.309-484.337 0-517.824-1.456-493.073 28.633-505.691 11.162-4.368 54.84-5.338 181.020-3.397 147.534 1.941 171.799 3.397 214.506 12.618 230.521 50.472 347.966 205.285 360.099 473.661 5.338 112.106-11.162 206.256-49.016 287.302-25.236 53.384-41.736 78.135-75.223 112.106-65.517 66.487-140.739 104.341-247.507 124.724-31.060 6.309-81.532 8.736-203.829 10.677-150.445 1.941-164.034 1.456-179.564-6.794zM400.379 831.879c86.87-23.78 158.696-82.502 196.064-158.21 35.427-73.282 41.251-103.371 41.251-223.242 0.485-92.694-0.971-109.194-10.677-148.019-34.457-135.401-112.106-215.477-234.404-240.227-49.987-10.191-169.858-16.986-220.33-12.133l-36.398 3.397v791.052l117.93-1.941c89.782-1.941 124.239-4.368 146.563-10.677z" />
<glyph unicode="&#xb104;" glyph-name="E" horiz-adv-x="568" d="M29.118 951.264c-9.221-4.368-19.412-13.589-22.809-20.383-4.853-9.221-6.309-116.474-6.309-484.337 0-512.971-0.971-492.102 26.692-504.72 19.898-9.221 516.368-8.25 528.986 0.971 13.103 9.706 16.986 74.737 5.338 92.694l-7.765 12.133h-417.365v368.834h354.275l7.765 12.133c9.706 14.559 7.765 74.252-2.427 86.87-5.824 6.794-26.207 7.765-182.961 7.765h-176.652v320.303h202.859c240.227 0 221.786-4.853 221.786 59.208 0 62.119 22.809 57.266-268.861 57.266-224.212 0-247.022-0.971-262.552-8.736z" />
<glyph unicode="&#xb105;" glyph-name="F" horiz-adv-x="536" d="M28.981 951.306c-9.177-4.347-19.321-13.525-22.702-20.287-4.83-9.177-6.279-118.823-6.279-496.060v-483.985l11.109-6.279c14.491-8.211 98.536-8.211 113.509 0l10.626 6.279v434.234h361.781l7.245 10.626c5.313 7.728 7.728 22.219 7.728 47.819 0 56.513 14.491 52.649-197.072 52.649h-179.683v347.774h189.826c215.909 0 202.868-2.415 208.664 41.057 3.864 29.464-3.864 63.275-16.906 70.038-5.796 2.898-92.74 4.83-240.060 4.83-210.113 0-232.332-0.966-247.789-8.694z" />
<glyph unicode="&#xb106;" glyph-name="G" horiz-adv-x="807" d="M443.576 954.809c-220.372-16.988-379.399-156.667-429.891-377.040-12.269-53.795-16.988-163.274-8.966-224.619 21.707-172.712 113.253-307.2 252.461-370.433 139.679-63.233 321.357-60.874 482.271 5.663 43.414 18.404 56.627 28.785 62.761 50.492 6.606 24.066 6.606 405.353-0.472 424.7-9.91 29.257-9.91 29.257-199.609 29.257h-172.24l-5.663-10.382c-9.438-16.988-8.022-70.312 1.888-85.412l8.022-12.741h240.664l-0.944-144.87-1.416-144.87-32.56-13.685c-45.773-19.347-92.018-27.841-149.117-27.37-62.761 0-109.95 9.91-158.555 33.504-112.31 54.267-176.487 157.611-191.115 310.031-17.46 180.262 57.099 344.479 187.34 411.016 112.31 57.099 272.752 45.301 405.353-30.673 25.010-14.157 48.605-25.010 53.324-24.066 4.247 0.944 10.382 6.606 13.685 13.213 8.022 15.572 7.55 67.008-0.472 86.828-16.516 40.111-143.454 92.018-242.079 99.569-20.291 1.416-44.358 3.303-53.324 4.247-8.966 0.472-36.807-0.472-61.346-2.359z" />
<glyph unicode="&#xb107;" glyph-name="H" horiz-adv-x="731" d="M32.691 955.673c-35.576-7.211-32.691 38.46-32.691-510.558v-494.212l10.577-6.25c14.903-8.173 98.554-8.173 112.977 0l11.057 6.25v461.040l229.799-0.962 229.318-1.442 4.808-461.521 16.826-5.769c33.172-11.538 101.919-5.769 111.534 9.134 1.923 3.365 3.846 227.395 3.846 497.577v491.808l-12.98 8.173c-14.903 9.615-86.535 11.057-108.169 2.404l-13.461-5.769v-418.254h-461.521v413.446l-10.577 6.731c-13.461 8.654-66.824 13.461-91.343 8.173z" />
<glyph unicode="&#xb108;" glyph-name="I" horiz-adv-x="135" d="M32.691 955.673c-35.576-7.211-32.691 38.46-32.691-510.558v-494.212l10.577-6.25c14.903-8.173 98.554-8.173 112.977 0l11.057 6.25v989.867l-10.577 6.731c-13.461 8.654-66.824 13.461-91.343 8.173z" />
<glyph unicode="&#xb109;" glyph-name="J" horiz-adv-x="371" d="M269.098 955.713c-10.478-1.429-21.909-4.763-24.767-6.668-4.763-3.334-6.192-85.254-6.192-383.405 0-228.138-1.905-392.93-4.763-412.934-5.715-39.055-20.956-71.918-39.531-85.254-11.431-8.097-20.956-10.002-54.772-10.002-38.102 0-44.77 1.429-78.586 17.622-20.004 10.002-40.007 16.67-43.818 15.241-18.575-7.144-22.385-83.349-5.239-108.592 20.48-31.911 104.305-51.914 176.7-41.913 71.918 9.526 120.022 40.484 149.075 95.256 31.911 60.011 30.958 46.199 32.863 497.235l1.905 408.171-10.954 7.144c-12.86 8.573-64.774 13.336-91.922 8.097z" />
<glyph unicode="&#xb10a;" glyph-name="K" horiz-adv-x="659" d="M32.691 955.673c-35.576-7.211-32.691 38.46-32.691-510.558v-494.212l10.577-6.25c14.903-8.173 98.554-8.173 112.977 0l11.057 6.25v514.885l121.63-165.378c269.701-365.852 260.086-353.833 283.162-360.083 25.961-6.731 101.438-3.846 111.534 4.808 19.711 16.346 14.423 24.999-180.282 285.085-162.013 215.857-187.493 251.914-182.685 259.606 2.885 4.808 76.439 93.266 162.975 197.108 87.016 103.842 164.898 198.55 173.070 210.088 19.711 26.922 20.672 46.633 2.404 54.325-19.23 7.692-91.823 6.731-110.092-1.442-11.057-4.808-68.747-73.555-197.108-235.087l-182.205-227.876-1.442 226.915-0.962 226.915-11.057 6.731c-12.98 8.654-66.344 13.461-90.862 8.173z" />
<glyph unicode="&#xb10b;" glyph-name="L" horiz-adv-x="526" d="M32.845 955.653c-35.743-7.245-32.845 37.192-32.845-498.958 0-524.075-0.966-502.34 26.566-514.898 9.177-4.347 75.834-5.796 248.272-5.796 213.494 0 236.679 0.966 242.475 8.211 10.626 12.558 12.075 80.664 2.415 95.638l-7.728 12.075h-376.755v888.755l-10.626 6.762c-13.525 8.694-67.14 13.525-91.774 8.211z" />
<glyph unicode="&#xb10c;" glyph-name="M" horiz-adv-x="1106" d="M36.226 952.755c-10.626-3.864-19.804-7.245-19.804-7.245-0.483 0-4.347-7.245-8.694-16.423-6.762-14.974-7.728-64.725-7.728-497.509v-480.604l10.626-6.279c14.974-8.211 99.019-8.211 113.992 0l10.626 6.279v447.758l0.483 447.758 170.989-444.377c96.604-249.721 175.819-448.725 181.132-454.038 8.694-8.211 16.423-9.66 57.962-9.66 42.023 0 49.268 1.449 56.996 9.66 4.83 5.313 89.358 209.147 187.411 453.072l178.234 443.894 2.415-448.725 2.415-448.242 19.321-6.279c22.702-7.728 85.977-5.796 102.883 3.381l10.626 5.796v480.604c0 532.287 1.449 506.204-30.43 519.728-16.906 6.762-126.551 9.177-149.253 2.415-19.804-5.313-46.37-30.913-58.928-56.030-5.796-12.075-79.215-187.894-162.777-390.279-83.079-202.868-153.117-366.611-154.566-364.679-1.932 1.932-69.072 169.54-149.253 372.891s-150.219 378.204-156.015 388.347c-16.906 30.43-40.574 46.37-76.317 51.2-45.887 6.762-110.128 5.313-132.347-2.415z" />
<glyph unicode="&#xb10d;" glyph-name="N" horiz-adv-x="768" d="M36.226 952.755c-10.626-3.864-19.804-7.245-20.287-7.245s-4.347-6.279-8.694-14.491c-6.279-12.075-7.245-73.419-7.245-497.026v-483.019l10.626-6.279c14.974-8.694 99.019-8.211 113.992 0l11.109 6.279-1.449 426.989c-0.966 234.747-0.966 426.506-0.966 426.023 0.483-0.483 22.219-43.472 48.785-95.155 76.317-149.253 368.060-690.717 384.966-714.385 8.211-11.592 23.185-28.015 33.328-36.226 18.355-14.491 20.287-14.974 76.317-16.423l57.479-1.932 33.811 33.811v485.434c0 435.2-0.966 485.917-7.728 491.713-10.626 8.694-83.079 11.592-105.298 4.347-11.109-3.381-18.355-9.177-19.804-15.94-1.449-5.796-2.415-190.309-1.449-410.566 0.966-219.774 0.966-399.457 0.483-399.457-0.966 0-21.253 39.608-45.404 88.392-39.608 78.249-333.283 632.272-358.4 674.777-13.525 23.185-36.709 47.819-53.615 56.513-20.77 10.626-115.442 13.525-140.558 3.864z" />
<glyph unicode="&#xb10e;" glyph-name="Ñ" horiz-adv-x="612" d="M172.883 953.351c-27.484-8.423-54.525-32.803-65.607-58.958-10.639-24.381-14.185-69.153-6.649-76.689 7.093-7.093 41.226-10.196 55.411-4.433 8.866 3.546 12.855 8.423 15.072 21.278 3.99 21.721 12.855 39.453 21.721 42.999 3.99 1.33 15.958 2.66 26.154 2.66 15.072 0 26.597-4.876 56.298-22.608 62.504-38.123 80.235-45.216 118.802-45.216 56.741 0 91.761 20.391 111.266 64.72 11.969 26.597 14.185 72.256 4.433 78.462-7.979 4.876-53.195 5.763-60.287 0.887-2.66-1.773-6.206-12.412-7.979-23.494-4.876-32.803-25.268-47.875-57.184-42.113-7.979 1.33-32.36 13.742-54.081 27.041-67.823 41.669-107.719 50.535-157.368 35.463zM23.938 741.015c-8.866-3.99-15.515-11.082-19.061-20.391-7.536-22.165-7.093-762.459 0.887-772.655 7.093-10.196 56.298-14.629 81.565-7.979l19.061 5.319v680.007l52.752-101.957c87.771-170.223 278.386-521.752 293.901-543.030 25.268-33.69 38.123-39.896 86.442-39.896 23.051 0 45.659 2.216 50.978 4.876 21.278 11.526 21.278 8.866 21.278 409.6 0 437.527 6.206 392.312-54.525 392.312-22.608 0-39.896-2.216-44.329-5.319-7.093-5.319-7.536-31.474-8.423-328.035l-1.33-322.272-39.453 76.246c-21.278 42.113-94.421 179.976-161.801 306.757-128.554 242.036-142.296 263.758-172.883 269.52-25.268 5.319-90.431 3.103-105.060-3.103z" />
<glyph unicode="&#xb10f;" glyph-name="O" horiz-adv-x="887" d="M403.465 956.697c-151.948-13.685-266.618-84.468-334.57-205.744-21.235-37.751-47.189-116.085-57.571-173.183-10.382-54.739-11.797-209.047-2.831-266.618 32.088-201.497 123.635-315.694 288.324-360.052 41.526-10.853 53.324-12.269 137.32-12.269 84.468 0 95.794 1.416 137.792 12.741 161.386 42.942 261.899 157.139 301.065 341.648 14.629 67.008 18.404 214.71 7.55 288.324-24.538 167.521-91.547 273.696-207.631 330.794-75.030 37.279-172.712 53.324-269.449 44.358zM532.763 836.837c40.582-9.91 89.187-36.335 117.5-64.649 67.48-66.065 96.737-164.218 96.737-321.829 0-90.131-7.078-142.511-27.37-202.441-32.088-94.85-97.209-159.499-189.228-187.34-38.223-11.797-137.792-11.797-181.206 0-140.623 38.223-207.631 162.802-207.631 386.949 0 105.231 18.876 197.25 53.324 257.652 8.022 14.157 27.37 39.167 42.942 55.683 43.886 46.245 92.018 71.255 153.836 81.165 31.145 5.191 110.422 1.888 141.095-5.191z" />
<glyph unicode="&#xb110;" glyph-name="P" horiz-adv-x="623" d="M30.43 952.755c-32.362-14.008-30.43 14.974-30.43-518.762v-483.019l11.109-6.279c14.491-8.211 98.536-8.211 113.509 0l10.626 6.279v374.823l100.468 2.898c116.408 2.898 157.464 11.109 223.155 43.472 79.215 39.125 138.626 116.408 157.464 206.249 11.592 54.098 7.245 146.355-8.694 189.343-24.634 66.657-72.936 120.272-135.245 150.702-68.106 33.328-130.898 41.54-310.581 41.54-87.909-0.483-119.789-1.932-131.381-7.245zM383.034 823.306c51.683-25.6 82.113-65.208 94.672-123.17 20.287-96.604-18.838-192.725-96.604-234.747-36.226-19.804-79.215-27.049-167.125-27.049h-78.732v406.702l105.298-1.932 105.298-1.449 37.192-18.355z" />
<glyph unicode="&#xb111;" glyph-name="Q" horiz-adv-x="894" d="M357.355 957.074c-134.583-12.121-236.147-74.815-296.333-182.23-18.808-33.437-41.796-103.236-50.573-151.301-14.211-81.084-12.121-194.351 4.598-277.943 31.347-153.809 114.521-245.76 254.955-280.869 31.347-7.941 48.483-9.195 112.431-9.195 84.428-0.418 117.864 5.851 175.543 32.601l29.257 13.793 29.257-25.078c75.651-64.366 213.995-140.852 255.373-140.852 15.882 0 22.57 15.047 22.57 50.155 0 17.136-2.508 35.944-5.433 41.796-3.762 7.105-22.988 19.226-63.53 39.706-54.335 27.167-101.146 56.424-135.001 84.846l-13.793 11.285 19.644 25.078c43.050 55.589 75.233 142.524 85.682 231.967 6.269 56.007 2.508 191.007-6.269 231.967-29.675 132.911-84.010 213.577-178.051 262.896-61.858 32.601-157.153 48.901-240.327 41.378zM478.145 848.823c59.35-15.464 112.431-58.096 141.688-113.685 58.932-112.013 58.932-337.293 0-448.888-19.226-36.78-56.424-77.74-88.607-96.967-41.378-25.078-78.158-33.855-140.434-33.437-38.034 0-62.276 2.508-81.502 7.523-124.552 33.855-183.902 144.196-183.902 342.727 0 96.549 17.554 177.633 50.155 232.385 38.452 64.784 97.802 105.326 170.945 117.029 31.347 5.016 100.31 1.672 131.657-6.687z" />
<glyph unicode="&#xb112;" glyph-name="R" horiz-adv-x="676" d="M28.981 951.306c-9.177-4.347-19.321-13.525-22.702-20.287-4.83-9.177-6.279-118.823-6.279-496.060v-483.985l11.109-6.279c14.491-8.211 98.536-8.211 113.509 0l10.626 6.279v444.86l71.487-1.932c67.623-1.932 72.936-2.898 103.366-16.906 66.174-30.913 92.257-73.902 177.751-293.675 26.566-69.072 52.649-129.932 57.962-134.762 11.592-11.592 78.249-16.423 110.128-8.211 18.838 5.313 20.287 6.762 20.287 22.702 0 18.355-96.121 262.762-132.83 337.63-26.083 53.132-61.343 97.087-93.706 117.857l-24.151 15.457 43.472 21.736c47.336 24.151 94.189 63.275 113.026 96.121 24.634 42.023 32.845 73.419 33.328 132.83 0.483 34.777-1.932 64.725-6.279 79.698-19.321 69.072-63.758 122.687-126.551 153.117-69.555 34.294-127.517 42.023-315.894 42.506-105.298 0-122.687-0.966-137.66-8.694zM377.721 830.068c37.675-15.457 63.275-38.642 79.698-71.97 12.558-25.117 13.525-32.362 13.525-80.664 0-61.826-8.211-85.494-40.574-117.857-42.989-42.989-83.079-53.615-204.317-53.615h-90.808v339.079l107.713-1.932c98.536-1.932 109.645-2.898 134.762-13.042z" />
<glyph unicode="&#xb113;" glyph-name="S" horiz-adv-x="609" d="M266.618 955.281c-153.836-23.594-243.023-117.972-243.023-257.18 0-71.255 20.763-125.523 67.008-174.599 38.695-41.526 70.312-61.818 185.453-117.972 109.478-53.324 148.645-79.277 171.296-113.253 29.257-43.886 31.145-103.816 5.191-155.724-50.964-102.4-227.923-117.5-373.265-32.088-15.1 8.966-34.92 19.347-43.886 23.123-15.1 6.135-16.988 6.135-25.954-2.831-8.022-8.022-9.438-15.572-9.438-49.076 0-53.324 7.55-64.177 64.177-92.962 66.536-33.032 119.86-44.358 209.519-43.886 58.986 0.472 80.693 2.359 110.894 10.382 114.197 30.673 195.834 110.422 217.069 212.35 19.819 92.018-0.944 176.015-57.571 237.36-37.751 40.582-66.536 58.514-191.587 119.86-92.962 45.301-114.669 58.514-140.623 81.637-41.054 37.751-53.324 63.705-53.324 109.478 0 58.986 24.538 97.681 77.39 122.219 21.235 9.91 34.92 12.269 76.446 13.685 61.818 2.359 95.322-6.135 169.88-44.358l50.964-25.482 9.91 9.91c8.966 8.966 9.91 14.157 8.022 54.739-1.416 44.358-1.416 45.301-16.988 58.042-19.347 16.044-80.693 41.054-123.163 50.020-41.526 8.494-109.478 11.797-144.398 6.606z" />
<glyph unicode="&#xb114;" glyph-name="T" horiz-adv-x="763" d="M17.389 953.721c-17.389-13.042-20.287-73.419-4.83-98.536l6.762-11.109h294.642v-443.894c0-389.796 0.966-444.86 7.245-451.623 14.491-14.491 92.74-16.423 117.857-3.381l10.143 5.796v893.102h149.253c132.83 0 149.736 0.966 155.532 8.211 4.83 5.313 6.762 21.253 6.762 48.302 0 65.691 40.091 59.411-378.687 59.411-284.981 0-357.917-1.449-364.679-6.279z" />
<glyph unicode="&#xb115;" glyph-name="U" horiz-adv-x="753" d="M29.053 954.761c-11.907-2.381-22.861-5.715-25.243-8.097s-3.334-166.698-2.858-365.782c1.905-360.543 1.905-361.496 12.383-397.217 38.579-125.738 113.831-200.513 237.187-234.329 31.434-8.573 50.486-10.478 118.593-10.478 87.159 0 128.119 7.144 185.749 32.387 102.4 45.247 172.889 142.884 192.417 264.811 3.334 19.527 5.239 158.125 5.239 370.545v339.111l-12.86 5.715c-17.622 6.668-91.446 6.668-104.781 0l-10.002-5.715-1.905-343.873c-1.905-304.342-3.334-347.684-10.002-372.927-35.721-125.738-117.641-183.844-250.999-177.176-112.402 5.715-178.605 53.82-214.802 155.743l-11.431 30.958-2.381 351.018c-1.905 263.859-3.81 352.447-8.097 356.733-5.715 5.715-42.389 13.336-63.345 12.86-6.668 0-21.433-1.905-32.863-4.287z" />
<glyph unicode="&#xb116;" glyph-name="V" horiz-adv-x="851" d="M28.845 956.635c-21.634-2.885-28.845-9.134-28.845-24.518 0-11.538 316.334-918.235 336.526-965.829 11.057-24.999 26.922-30.287 88.939-30.287s77.882 5.288 88.939 30.287c21.634 49.998 336.526 956.695 336.526 969.675 0 18.269-11.538 21.634-71.632 20.672-36.537-0.481-46.633-1.923-53.363-9.615-4.808-4.808-70.67-196.146-149.514-435.080-77.401-235.087-142.302-426.907-143.745-426.907s-67.305 190.858-146.629 424.023c-82.689 243.26-148.552 428.83-153.84 435.080-8.173 9.134-15.384 11.057-48.075 12.98-21.153 0.962-46.152 0.962-55.286-0.481z" />
<glyph unicode="&#xb117;" glyph-name="W" horiz-adv-x="1325" d="M12.243 954.435c-8.348-3.339-12.243-10.017-12.243-20.591 0-8.348 61.774-231.513 137.461-495.861 123.548-433.53 138.574-481.391 151.374-489.739 11.13-7.235 27.27-9.461 75.687-9.461 89.6 0 82.922-7.791 121.322 142.47 141.913 552.626 167.513 650.574 170.852 643.896 2.226-3.896 51.2-178.643 109.078-387.896 86.261-312.209 107.409-381.774 116.87-388.452 26.713-17.252 135.791-15.583 158.052 2.783 14.47 12.243 284.939 950.539 282.713 980.035-1.67 16.696-3.896 20.035-21.148 24.487-27.826 7.235-95.165 1.67-102.4-8.904-3.339-4.452-56.209-198.678-117.426-431.861-61.217-232.626-112.417-423.513-114.087-423.513s-52.87 180.87-113.53 402.365c-60.661 220.939-114.087 413.496-117.983 427.965-6.678 20.591-11.13 26.713-25.6 31.722-21.704 7.791-72.904 7.791-99.617 0.557-24.487-6.678-7.235 50.087-141.357-474.713-55.096-213.148-101.287-386.226-103.513-384-2.226 2.783-54.539 193.67-116.313 424.626s-115.757 423.513-120.209 427.965c-8.904 10.017-98.504 14.47-117.983 6.122z" />
<glyph unicode="&#xb118;" glyph-name="X" horiz-adv-x="755" d="M48.075 957.115c-34.614-6.25-34.614-6.25-32.691-22.595 0.962-9.134 57.69-110.573 137.976-247.587l136.053-231.722-143.264-241.818c-80.285-135.091-143.264-246.625-143.745-253.356 0-17.307 17.307-24.038 66.344-24.038 70.19 0 56.729-15.384 188.454 217.78 63.459 112.977 116.342 205.281 117.784 205.281s8.173-10.096 14.903-23.076c105.765-190.377 213.934-380.274 221.146-387.966 8.654-8.654 15.865-9.615 69.228-9.615 50.479 0 61.055 1.442 68.267 8.173 7.692 8.173 7.692 9.615-2.404 29.807-5.769 12.019-70.19 124.034-143.264 249.029s-133.168 229.799-133.168 232.203c0 2.885 57.69 102.881 128.361 223.069 70.67 119.707 131.245 224.030 135.091 231.722 18.269 35.095 4.808 45.191-63.459 44.71-39.902-0.481-51.44-1.923-58.652-8.654-5.288-4.808-58.652-94.708-118.746-199.992l-109.611-191.82-26.922 46.633c-14.903 25.48-64.901 112.496-111.054 192.781-46.152 79.805-87.977 148.552-93.266 151.917-10.096 6.731-81.728 12.98-103.362 9.134z" />
<glyph unicode="&#xb119;" glyph-name="Y" horiz-adv-x="731" d="M26.922 956.154c-37.499-6.731-42.306 6.25 121.149-320.661l149.994-300.469v-384.12l11.057-6.25c6.25-3.846 27.884-6.25 56.248-6.25s49.998 2.404 56.729 6.25l10.577 6.25v384.601l149.033 297.104c82.208 163.455 149.033 300.95 149.033 304.796 0 14.423-19.711 19.711-69.709 19.711-26.441 0-52.402-2.404-57.69-5.288-10.577-5.769-152.879-298.546-201.915-414.888-15.384-35.576-28.845-66.344-30.768-68.267-1.923-2.404-19.23 32.21-38.46 75.959-19.23 44.229-69.709 151.917-112.015 239.895-59.132 123.072-79.324 161.052-88.458 165.378-14.423 6.25-79.805 10.577-104.804 6.25z" />
<glyph unicode="&#xb11a;" glyph-name="Z" horiz-adv-x="675" d="M23.78 950.779c-8.736-6.794-11.162-15.045-13.103-38.339-2.427-33.972 0.485-50.472 11.647-61.149 6.794-6.794 35.427-7.765 242.654-7.765 129.092 0 234.889-0.971 234.889-2.427s-90.267-144.136-200.432-316.906c-265.464-414.938-284.876-445.998-292.641-464.925-8.736-20.383-8.736-93.664-0.485-104.341 14.074-18.927 18.442-18.927 336.804-18.927 260.125 0 311.568 0.971 319.818 6.794 13.103 9.706 13.589 85.414 0.485 98.518-7.765 8.25-27.177 8.736-260.125 11.162l-251.875 2.427 55.81 87.355c313.509 490.646 429.983 675.064 436.777 690.108 8.25 19.898 11.162 78.135 4.853 99.973-7.765 27.663-8.736 27.663-325.642 27.663-273.228 0-288.758-0.485-299.435-9.221z" />
</font>
</defs>
</svg>
